<svg width="207" height="274" viewBox="0 0 207 274" fill="none" xmlns="http://www.w3.org/2000/svg">
<path d="M180.833 42.5387C171.623 42.5387 164.128 35.0427 164.128 25.8267C164.128 16.612 171.623 9.11602 180.833 9.11602C190.049 9.11602 197.551 16.612 197.551 25.8267C197.551 35.0427 190.049 42.5387 180.833 42.5387ZM12.1533 159.737C12.1533 150.609 19.5813 143.183 28.7053 143.183C37.836 143.183 45.26 150.609 45.26 159.737C45.26 168.864 37.836 176.289 28.7053 176.289C19.5813 176.289 12.1533 168.864 12.1533 159.737ZM48.9747 25.8267C48.9747 16.612 56.4707 9.11602 65.684 9.11602C74.9013 9.11602 82.3987 16.612 82.3987 25.8267C82.3987 35.0427 74.9013 42.5387 65.684 42.5387C56.4707 42.5387 48.9747 35.0427 48.9747 25.8267V25.8267ZM206.667 25.8267C206.667 11.5853 195.077 6.10817e-06 180.833 6.10817e-06C166.596 6.10817e-06 155.012 11.5853 155.012 25.8267C155.012 37.992 163.475 48.188 174.809 50.912C180.109 92.9933 171.545 123.741 149.991 139.031C134.111 150.299 111.872 150.408 95.936 139.299C61.936 115.593 71.1547 54.468 71.728 50.9013C83.0573 48.1693 91.5147 37.984 91.5147 25.8267C91.5147 11.5853 79.9267 6.10817e-06 65.684 6.10817e-06C51.444 6.10817e-06 39.86 11.5853 39.86 25.8267C39.86 37.9147 48.216 48.06 59.4467 50.86C57.8387 61.6387 50.664 122.551 88.9827 149.268C98.0013 155.553 108.377 159.013 118.907 159.695C119.624 175.152 120.241 219.709 105.517 245.432C89.8786 267.464 68.044 261.195 60.388 256.657C41.5653 245.487 32.9107 221.668 35.1773 187.68C47.8987 184.733 57.4147 173.336 57.4147 159.737C57.4147 143.907 44.536 131.028 28.7053 131.028C12.8787 131.028 0 143.907 0 159.737C0 173.6 9.87733 185.196 22.9667 187.864C20.0027 236.077 38.1027 257.563 54.1853 267.109C61.2507 271.303 93.6587 284.169 116.063 251.473C132.503 222.756 131.885 175.9 131.065 159.233C140.236 157.939 149.16 154.524 157.024 148.941C174.661 136.433 194.091 109.259 187.017 50.876C198.281 48.0933 206.667 37.936 206.667 25.8267" fill="#00ADEF"/>
<path d="M89.8053 80.2774C96.4813 92.9907 108.947 101.548 123.232 101.548C137.517 101.548 149.979 92.9907 156.655 80.2774C148.021 87.748 136.235 92.3547 123.232 92.3547C110.229 92.3547 98.44 87.748 89.8053 80.2774Z" fill="#00ADEF"/>
<path d="M180.483 35.3027C176.525 35.3027 173.141 32.8693 171.723 29.4186L180.483 25.8266L171.723 22.2373C173.141 18.7827 176.525 16.352 180.483 16.352C185.711 16.352 189.955 20.5986 189.955 25.8266C189.955 31.0546 185.711 35.3027 180.483 35.3027Z" fill="#00ADEF"/>
<path d="M65.3333 35.3027C61.372 35.3027 57.9893 32.8693 56.572 29.4186L65.3333 25.8266L56.572 22.2373C57.9893 18.7827 61.372 16.352 65.3333 16.352C70.5627 16.352 74.8027 20.5986 74.8027 25.8266C74.8027 31.0546 70.5627 35.3027 65.3333 35.3027Z" fill="#00ADEF"/>
</svg>
